<svg id="Packs" xmlns="http://www.w3.org/2000/svg" width="28" height="28" viewBox="0 0 28 28">
  <path id="Path_50243" data-name="Path 50243" d="M1211.085,417.223a1.333,1.333,0,0,1,0,2.372l-.016.009-6.941,3.738a3.252,3.252,0,0,1-3.059,0l-6.941-3.738-.016-.009a1.333,1.333,0,0,1,0-2.372l.016-.009,6.941-3.738a3.251,3.251,0,0,1,3.059,0l6.941,3.738Zm1.514,3.792c0-.488-.583-.672-1.024-.409-.2.119-7.447,4.078-7.447,4.078l-.007,0a1.315,1.315,0,0,0-.726,1.147v4.214a.785.785,0,0,1-.782.767.772.772,0,0,1-.811-.743v-4.238a1.315,1.315,0,0,0-.726-1.147l-.007,0s-7.253-3.963-7.447-4.078c-.44-.263-1.021-.079-1.024.409V428.5a2.824,2.824,0,0,0,1.53,2.471l6.941,3.738a3.251,3.251,0,0,0,3.059,0l6.941-3.738a2.824,2.824,0,0,0,1.529-2.471v-7.489Z" transform="translate(-1188.599 -410.095)" fill="#3e3e3e"/>
</svg>
