<svg id="prcie_SHEVRON" xmlns="http://www.w3.org/2000/svg" width="24" height="24" viewBox="0 0 24 24">
  <path id="Icon_material-local-offer" data-name="Icon material-local-offer" d="M18.528,10.664l-7.2-7.2A1.59,1.59,0,0,0,10.2,3H4.6A1.6,1.6,0,0,0,3,4.6v5.6a1.6,1.6,0,0,0,.472,1.136l7.2,7.2A1.59,1.59,0,0,0,11.8,19a1.564,1.564,0,0,0,1.128-.472l5.6-5.6A1.564,1.564,0,0,0,19,11.8a1.616,1.616,0,0,0-.472-1.136ZM5.8,7A1.2,1.2,0,1,1,7,5.8,1.2,1.2,0,0,1,5.8,7Z" transform="translate(1 1)" fill="#434343"/>
</svg>
