<?xml version="1.0" encoding="utf-8"?>
<!-- Generator: Adobe Illustrator 25.3.1, SVG Export Plug-In . SVG Version: 6.00 Build 0)  -->
<svg version="1.1" id="Слой_1" xmlns="http://www.w3.org/2000/svg" xmlns:xlink="http://www.w3.org/1999/xlink" x="0px" y="0px"
	 viewBox="0 0 217.4 107.8" style="enable-background:new 0 0 217.4 107.8;" xml:space="preserve">
<style type="text/css">
	.st0{fill:#FFFFFF;}
	.st1{fill:#020203;}
</style>
<g>
	<path d="M33.9,78.1c5-1.7,8.4-5.6,8.4-11.5c0-8.4-6.5-12.9-17.3-12.9H4v3.2h20.9c8.7,0,13.8,3.4,13.8,10c0,6.7-5,10.1-13.8,10.1H4
		v3.2h22.5c9.7,0,14.9,3.2,14.9,10.4c0,7.3-5.3,10.4-14.9,10.4H4v3.2h22.5c12.4,0,18.6-4.8,18.6-13.3C45,83.8,41.1,79.5,33.9,78.1z"
		/>
	<path d="M84.7,86.5c7.5-2.2,11.8-7.8,11.8-15.8c0-10.7-7.6-17-20.3-17H58.1V57h18.1c10.8,0,16.6,5,16.6,13.7
		c0,8.6-5.8,13.7-16.6,13.7H58.1v19.7h3.7V87.6h14.4c1.7,0,3.3-0.1,4.9-0.4l12,16.9h4.2L84.7,86.5z"/>
	<path d="M128.4,53.7h-3.7l-23.2,50.4h4l6.4-14.2h0l1.4-3l0-0.1h0l13.2-29.1l13.2,29.1v0l1.6,3.4l-0.1,0l6.3,13.8h4L128.4,53.7z"/>
	<path d="M160.7,53.7h3.7v50.4h-3.7V53.7z"/>
	<path d="M182,53.7h3.7v47.1h29v3.3H182V53.7z"/>
	<polygon class="st0" points="113.4,86.8 113.3,86.9 113.3,86.8 	"/>
	<polygon class="st0" points="139.8,86.8 139.6,86.8 139.7,86.7 	"/>
	<g>
		<g>
			<path class="st1" d="M86.8,28.2c2.5,0,4.4,1.8,4.4,4c0,2.2-2,4-4.4,4c-2.4,0-4.4-1.8-4.4-4C82.4,30,84.4,28.2,86.8,28.2z
				 M86.8,33.4c0.7,0,1.3-0.5,1.3-1.2c0-0.7-0.6-1.2-1.3-1.2c-0.7,0-1.3,0.5-1.3,1.2C85.5,32.9,86.1,33.4,86.8,33.4z"/>
			<path class="st1" d="M87.3,11.5H95c0.6,0,1,0.4,1,0.9v18.4c0,0.5-0.5,0.9-1,0.9h-1.1c-0.5,0-1-0.3-1-0.8c-0.4-2.8-2.9-4.6-6-4.6
				s-5.5,1.8-6,4.6c-0.1,0.5-0.5,0.8-1,0.8h-1.1c-0.6,0-1-0.4-1-0.9v-9.2c0-0.2,0.1-0.4,0.2-0.6l8.5-9.2
				C86.7,11.6,87,11.5,87.3,11.5z M93.9,19.1v-4.7c0-0.5-0.5-0.9-1-0.9h-4.6c-0.3,0-0.6,0.1-0.8,0.3l-4.4,4.7
				C82.5,19.1,83,20,83.9,20h9C93.4,20,93.9,19.6,93.9,19.1z"/>
			<path class="st1" d="M128.9,31.8h-2.7c-0.5,0-1-0.3-1-0.8c-0.4-2.8-2.9-4.6-6-4.6s-5.5,1.8-6,4.6c-0.1,0.5-0.5,0.8-1,0.8H99.1
				c-0.6,0-1-0.4-1-0.9V7.2c0-0.5,0.5-0.9,1-0.9h29.8c0.6,0,1,0.4,1,0.9v23.6C130,31.4,129.5,31.8,128.9,31.8z"/>
			<path class="st1" d="M119.3,28.2c2.5,0,4.4,1.8,4.4,4c0,2.2-2,4-4.4,4c-2.4,0-4.4-1.8-4.4-4C114.8,30,116.8,28.2,119.3,28.2z
				 M119.3,33.4c0.7,0,1.3-0.5,1.3-1.2c0-0.7-0.6-1.2-1.3-1.2c-0.7,0-1.3,0.5-1.3,1.2C118,32.9,118.5,33.4,119.3,33.4z"/>
		</g>
	</g>
</g>
</svg>
