<svg id="pickIp_24x24" xmlns="http://www.w3.org/2000/svg" width="24" height="24" viewBox="0 0 24 24">
  <path id="Subtraction_81" data-name="Subtraction 81" d="M-623.982,319.257h-.35v-2.322a1.022,1.022,0,0,0-.308-.728l-2.185-2.146a1.06,1.06,0,0,0-.742-.3h-.965v-1.031a1.041,1.041,0,0,0-1.05-1.031h-7a1.041,1.041,0,0,0-1.05,1.031V319.6a1.041,1.041,0,0,0,1.05,1.031h.35a2.082,2.082,0,0,0,2.1,2.063,2.082,2.082,0,0,0,2.1-2.062h2.8a2.082,2.082,0,0,0,2.1,2.063,2.082,2.082,0,0,0,2.1-2.062h1.05a.348.348,0,0,0,.35-.344V319.6A.348.348,0,0,0-623.982,319.257Zm-10.15,2.406a1.041,1.041,0,0,1-1.05-1.031,1.041,1.041,0,0,1,1.05-1.031,1.041,1.041,0,0,1,1.05,1.031A1.041,1.041,0,0,1-634.132,321.664Zm7,0a1.041,1.041,0,0,1-1.05-1.031,1.041,1.041,0,0,1,1.05-1.031,1.041,1.041,0,0,1,1.05,1.031A1.041,1.041,0,0,1-627.132,321.664Zm1.75-4.469h-3.15v-2.406h.965l2.185,2.146Z" transform="translate(642.632 -305.695)" fill="#434343"/>
</svg>
