<svg height="40" viewBox="0 0 40 40" width="40" xmlns="http://www.w3.org/2000/svg"><g fill="#0068df"><path d="m888 885.727-9.1 9.1a.186.186 0 0 0 -.05.092l-.2 2.806a.186.186 0 0 0 .221.22l2.806-.2a.185.185 0 0 0 .092-.05l9.1-9.1a.186.186 0 0 0 0-.262l-2.609-2.609a.185.185 0 0 0 -.26.003z" transform="translate(-865.649 -870.945)"/><path d="m1088.124 849.425-1.107 1.107a.185.185 0 0 0 0 .262l2.61 2.61a.185.185 0 0 0 .262 0l1.111-1.104a.185.185 0 0 0 0-.262l-2.61-2.61a.185.185 0 0 0 -.266-.003z" transform="translate(-1064.049 -836.371)"/></g></svg>