<svg height="40" viewBox="0 0 40 40" width="40" xmlns="http://www.w3.org/2000/svg"><g fill="#0068df"><path d="m1321.643 922.064h-9.664a.305.305 0 0 0 -.314.3l.285 10a.306.306 0 0 0 .313.289h9.094a.306.306 0 0 0 .314-.289l.285-10a.305.305 0 0 0 -.313-.3z" transform="translate(-1296.811 -905.655)"/><path d="m1305.857 849.066h-3.6a.26.26 0 0 1 -.267-.252v-.5a.26.26 0 0 0 -.267-.252h-3.191a.26.26 0 0 0 -.267.252v.5a.26.26 0 0 1 -.267.252h-3.6a.26.26 0 0 0 -.267.252v1.057a.26.26 0 0 0 .267.252h11.466a.26.26 0 0 0 .267-.252v-1.057a.26.26 0 0 0 -.274-.252z" transform="translate(-1280.124 -835.056)"/></g></svg>